<svg width="75" height="75" viewBox="0 0 75 75" fill="none" xmlns="http://www.w3.org/2000/svg">
<circle cx="37.5" cy="37.5" r="37.5" fill="#F5EBDC"/>
<path d="M58.875 36.8992V33.7742C58.875 25.2005 51.9247 18.25 43.3508 18.25H30.6492C22.0753 18.25 15.125 25.2005 15.125 33.7742V36.8992H58.875Z" fill="#FFAD41"/>
<path d="M37 18.25H30.6492C22.0753 18.25 15.125 25.2005 15.125 33.7742V36.8992H37V18.25Z" fill="#FFAD41"/>
<path d="M22.9375 30.75C23.8004 30.75 24.5 30.0504 24.5 29.1875C24.5 28.3246 23.8004 27.625 22.9375 27.625C22.0746 27.625 21.375 28.3246 21.375 29.1875C21.375 30.0504 22.0746 30.75 22.9375 30.75Z" fill="#804C09"/>
<path d="M30.75 26.0625C31.6129 26.0625 32.3125 25.3629 32.3125 24.5C32.3125 23.6371 31.6129 22.9375 30.75 22.9375C29.8871 22.9375 29.1875 23.6371 29.1875 24.5C29.1875 25.3629 29.8871 26.0625 30.75 26.0625Z" fill="#804C09"/>
<path d="M51.0625 30.75C51.9254 30.75 52.625 30.0504 52.625 29.1875C52.625 28.3246 51.9254 27.625 51.0625 27.625C50.1996 27.625 49.5 28.3246 49.5 29.1875C49.5 30.0504 50.1996 30.75 51.0625 30.75Z" fill="#804C09"/>
<path d="M43.25 26.0625C44.1129 26.0625 44.8125 25.3629 44.8125 24.5C44.8125 23.6371 44.1129 22.9375 43.25 22.9375C42.3871 22.9375 41.6875 23.6371 41.6875 24.5C41.6875 25.3629 42.3871 26.0625 43.25 26.0625Z" fill="#804C09"/>
<path d="M37 30.75C37.8629 30.75 38.5625 30.0504 38.5625 29.1875C38.5625 28.3246 37.8629 27.625 37 27.625C36.1371 27.625 35.4375 28.3246 35.4375 29.1875C35.4375 30.0504 36.1371 30.75 37 30.75Z" fill="#804C09"/>
<path d="M37 27.625C36.137 27.625 35.4375 28.3245 35.4375 29.1875C35.4375 30.0505 36.137 30.75 37 30.75" fill="#804C09"/>
<path d="M54.1875 38.5625H19.8125C17.2237 38.5625 15.125 40.6612 15.125 43.25C15.125 45.8387 17.2237 47.9375 19.8125 47.9375H54.1875C56.7762 47.9375 58.875 45.8387 58.875 43.25C58.875 40.6612 56.7762 38.5625 54.1875 38.5625Z" fill="#FF5023"/>
<path d="M37 38.5625H19.8125C17.2237 38.5625 15.125 40.6612 15.125 43.25C15.125 45.8387 17.2237 47.9375 19.8125 47.9375H37V38.5625Z" fill="#FF5023"/>
<path d="M62 51.0625C62 53.6512 59.9012 55.75 57.3125 55.75H16.6875C14.0987 55.75 12 53.6512 12 51.0625C12 48.4737 14.0987 46.375 16.6875 46.375H57.3125C59.9012 46.375 62 48.4737 62 51.0625Z" fill="#FFAD41"/>
<path d="M37 46.375H16.6875C14.0987 46.375 12 48.4737 12 51.0625C12 53.6512 14.0987 55.75 16.6875 55.75H37V46.375Z" fill="#FFAD41"/>
<path d="M21.375 40.125L37 38.5625L52.625 40.125L37 51.0625L21.375 40.125Z" fill="#FFE98F"/>
<path d="M21.375 40.125L37 38.5625V51.0625L21.375 40.125Z" fill="#FFE98F"/>
<path d="M62 37.7812C62 39.0756 60.9506 40.125 59.6562 40.125H14.3438C13.0494 40.125 12 39.0756 12 37.7812C12 36.4869 13.0494 35.4375 14.3438 35.4375H59.6562C60.9506 35.4375 62 36.4869 62 37.7812Z" fill="#91DC5A"/>
<path d="M37 35.4375H14.3438C13.0494 35.4375 12 36.4869 12 37.7812C12 39.0756 13.0494 40.125 14.3438 40.125H37V35.4375Z" fill="#91DC5A"/>
</svg>
