<svg width="75" height="75" viewBox="0 0 75 75" fill="none" xmlns="http://www.w3.org/2000/svg">
<circle cx="37.5" cy="37.5" r="37.5" fill="#F5EBDC"/>
<path d="M52.307 15.9656H23.693V13.5496C23.693 12.6938 24.3867 12 25.2424 12H50.7576C51.6134 12 52.307 12.6938 52.307 13.5496V15.9656Z" fill="#D15241"/>
<path d="M56.0424 18.3482L55.2581 15.4911C55.1687 15.1653 54.8724 14.9392 54.5344 14.9392H21.4656C21.1276 14.9392 20.8314 15.1653 20.7419 15.4911L19.9576 18.3482C19.8264 18.8258 20.1859 19.2972 20.6813 19.2972H55.3187C55.814 19.2972 56.1734 18.8259 56.0424 18.3482Z" fill="#E56353"/>
<path d="M27.185 59.8975C27.3431 61.1005 28.3686 62 29.5819 62H46.4181C47.6316 62 48.6568 61.1005 48.815 59.8975L50.1595 49.6728H25.8405L27.185 59.8975Z" fill="#FCD462"/>
<path d="M54.1536 19.2971H21.8464L23.4673 31.6243H52.5328L54.1536 19.2971Z" fill="#FCD462"/>
<path d="M23.4673 31.6243L25.8405 49.6728H50.1595L52.5328 31.6243H23.4673Z" fill="#DC8744"/>
<path d="M41.7989 44.4476C43.9724 42.2741 44.7126 39.3317 43.8273 37.1716C42.0889 37.1398 40.3537 37.9878 39.3279 39.3958C38.9718 39.8845 38.6944 40.4342 38.4007 41.0161C38.2869 41.2414 38.173 41.4668 38.0544 41.6891C37.3463 43.0166 36.4646 44.2457 35.4341 45.3415C35.2332 45.555 34.8069 46.0061 34.233 46.3458C36.4135 47.4266 39.5267 46.7198 41.7989 44.4476Z" fill="#AD6636"/>
<path d="M34.4311 44.3986C35.3785 43.3912 36.1889 42.2617 36.8398 41.0414C36.9535 40.8282 37.0626 40.612 37.1717 40.396C37.4774 39.7905 37.7934 39.1645 38.2152 38.5855C39.3266 37.0599 41.1019 36.0591 42.97 35.8403C42.9438 35.8127 42.919 35.7841 42.892 35.757C40.7939 33.659 36.903 34.1483 34.2013 36.8501C31.5658 39.4856 31.0368 43.2518 32.96 45.3825C33.3854 45.3177 33.8691 44.9961 34.4311 44.3986Z" fill="#AD6636"/>
<path d="M35.434 45.3416C36.4646 44.2458 37.3462 43.0168 38.0543 41.6892C38.1729 41.4669 38.2868 41.2416 38.4006 41.0162C38.6943 40.4344 38.9718 39.8846 39.3278 39.3959C40.3535 37.9878 42.0888 37.1399 43.8272 37.1717C43.6263 36.6813 43.341 36.2318 42.97 35.8402C41.1019 36.0591 39.3266 37.0599 38.2153 38.5854C37.7933 39.1645 37.4773 39.7905 37.1718 40.3959C37.0627 40.6119 36.9536 40.8281 36.8398 41.0414C36.1889 42.2618 35.3785 43.3912 34.4311 44.3985C33.869 44.996 33.3854 45.3176 32.96 45.3823C33.0083 45.4358 33.0569 45.4891 33.1083 45.5406C33.4418 45.874 33.8209 46.1416 34.233 46.3458C34.8069 46.0062 35.2331 45.5551 35.434 45.3416Z" fill="#995B30"/>
</svg>
