<svg width="75" height="84" viewBox="0 0 75 84" fill="none" xmlns="http://www.w3.org/2000/svg">
<path d="M15.7969 70.1328L17.9219 69.625V72.3906L15.7969 71.8828V73.4141L16.7969 73.6406V77H9.79688V73.6094L10.7969 73.4141V68.6016L9.79688 68.4062V65H19.4609V69H18.1484C18.0234 68.8854 17.8802 68.7682 17.7188 68.6484C17.5625 68.5286 17.3854 68.4219 17.1875 68.3281C16.9948 68.2292 16.7812 68.151 16.5469 68.0938C16.3177 68.0312 16.0677 68 15.7969 68V70.1328ZM27.2422 77.1406C26.6068 77.1406 25.9922 77.1016 25.3984 77.0234C24.8099 76.9453 24.2552 76.7995 23.7344 76.5859C23.2188 76.3724 22.7474 76.099 22.3203 75.7656C21.8932 75.4271 21.526 75.0234 21.2188 74.5547C20.9115 74.0807 20.6719 73.5391 20.5 72.9297C20.3333 72.3151 20.25 71.625 20.25 70.8594C20.25 70.1406 20.3333 69.4922 20.5 68.9141C20.6667 68.3359 20.901 67.8229 21.2031 67.375C21.5052 66.9271 21.8672 66.5417 22.2891 66.2188C22.7161 65.8958 23.1875 65.6328 23.7031 65.4297C24.224 65.2214 24.7812 65.0677 25.375 64.9688C25.974 64.8698 26.5964 64.8203 27.2422 64.8203C27.888 64.8203 28.5104 64.8698 29.1094 64.9688C29.7083 65.0677 30.2682 65.2214 30.7891 65.4297C31.3099 65.638 31.7812 65.9036 32.2031 66.2266C32.6302 66.5495 32.9948 66.9349 33.2969 67.3828C33.599 67.8307 33.8333 68.3438 34 68.9219C34.1667 69.4948 34.25 70.1406 34.25 70.8594C34.25 71.9844 34.0651 72.9505 33.6953 73.7578C33.3307 74.5599 32.8307 75.2161 32.1953 75.7266C31.5599 76.237 30.8177 76.6016 29.9688 76.8203C29.1198 77.0339 28.2109 77.1406 27.2422 77.1406ZM27.2422 68.3906C26.9089 68.3906 26.6276 68.4349 26.3984 68.5234C26.1745 68.6068 25.987 68.7188 25.8359 68.8594C25.6901 69 25.5781 69.1589 25.5 69.3359C25.4219 69.513 25.362 69.6927 25.3203 69.875C25.2839 70.0573 25.263 70.2344 25.2578 70.4062C25.2526 70.5781 25.25 70.7292 25.25 70.8594C25.25 70.9896 25.2526 71.1406 25.2578 71.3125C25.263 71.4844 25.2839 71.6641 25.3203 71.8516C25.362 72.0339 25.4219 72.2161 25.5 72.3984C25.5781 72.5807 25.6901 72.7448 25.8359 72.8906C25.987 73.0312 26.1745 73.1458 26.3984 73.2344C26.6276 73.3229 26.9089 73.3672 27.2422 73.3672C27.5755 73.3672 27.8542 73.3229 28.0781 73.2344C28.3073 73.1458 28.4974 73.0312 28.6484 72.8906C28.7995 72.7448 28.9141 72.5807 28.9922 72.3984C29.0755 72.2161 29.1354 72.0339 29.1719 71.8516C29.2083 71.6641 29.2292 71.4844 29.2344 71.3125C29.2448 71.1406 29.25 70.9896 29.25 70.8594C29.25 70.7292 29.2448 70.5781 29.2344 70.4062C29.2292 70.2344 29.2083 70.0573 29.1719 69.875C29.1354 69.6927 29.0755 69.513 28.9922 69.3359C28.9141 69.1589 28.7995 69 28.6484 68.8594C28.4974 68.7188 28.3073 68.6068 28.0781 68.5234C27.8542 68.4349 27.5755 68.3906 27.2422 68.3906ZM42.2422 77.1406C41.6068 77.1406 40.9922 77.1016 40.3984 77.0234C39.8099 76.9453 39.2552 76.7995 38.7344 76.5859C38.2188 76.3724 37.7474 76.099 37.3203 75.7656C36.8932 75.4271 36.526 75.0234 36.2188 74.5547C35.9115 74.0807 35.6719 73.5391 35.5 72.9297C35.3333 72.3151 35.25 71.625 35.25 70.8594C35.25 70.1406 35.3333 69.4922 35.5 68.9141C35.6667 68.3359 35.901 67.8229 36.2031 67.375C36.5052 66.9271 36.8672 66.5417 37.2891 66.2188C37.7161 65.8958 38.1875 65.6328 38.7031 65.4297C39.224 65.2214 39.7812 65.0677 40.375 64.9688C40.974 64.8698 41.5964 64.8203 42.2422 64.8203C42.888 64.8203 43.5104 64.8698 44.1094 64.9688C44.7083 65.0677 45.2682 65.2214 45.7891 65.4297C46.3099 65.638 46.7812 65.9036 47.2031 66.2266C47.6302 66.5495 47.9948 66.9349 48.2969 67.3828C48.599 67.8307 48.8333 68.3438 49 68.9219C49.1667 69.4948 49.25 70.1406 49.25 70.8594C49.25 71.9844 49.0651 72.9505 48.6953 73.7578C48.3307 74.5599 47.8307 75.2161 47.1953 75.7266C46.5599 76.237 45.8177 76.6016 44.9688 76.8203C44.1198 77.0339 43.2109 77.1406 42.2422 77.1406ZM42.2422 68.3906C41.9089 68.3906 41.6276 68.4349 41.3984 68.5234C41.1745 68.6068 40.987 68.7188 40.8359 68.8594C40.6901 69 40.5781 69.1589 40.5 69.3359C40.4219 69.513 40.362 69.6927 40.3203 69.875C40.2839 70.0573 40.263 70.2344 40.2578 70.4062C40.2526 70.5781 40.25 70.7292 40.25 70.8594C40.25 70.9896 40.2526 71.1406 40.2578 71.3125C40.263 71.4844 40.2839 71.6641 40.3203 71.8516C40.362 72.0339 40.4219 72.2161 40.5 72.3984C40.5781 72.5807 40.6901 72.7448 40.8359 72.8906C40.987 73.0312 41.1745 73.1458 41.3984 73.2344C41.6276 73.3229 41.9089 73.3672 42.2422 73.3672C42.5755 73.3672 42.8542 73.3229 43.0781 73.2344C43.3073 73.1458 43.4974 73.0312 43.6484 72.8906C43.7995 72.7448 43.9141 72.5807 43.9922 72.3984C44.0755 72.2161 44.1354 72.0339 44.1719 71.8516C44.2083 71.6641 44.2292 71.4844 44.2344 71.3125C44.2448 71.1406 44.25 70.9896 44.25 70.8594C44.25 70.7292 44.2448 70.5781 44.2344 70.4062C44.2292 70.2344 44.2083 70.0573 44.1719 69.875C44.1354 69.6927 44.0755 69.513 43.9922 69.3359C43.9141 69.1589 43.7995 69 43.6484 68.8594C43.4974 68.7188 43.3073 68.6068 43.0781 68.5234C42.8542 68.4349 42.5755 68.3906 42.2422 68.3906ZM59.4844 65C60.2396 65.1615 60.9193 65.3958 61.5234 65.7031C62.1276 66.0052 62.6406 66.3932 63.0625 66.8672C63.4896 67.3411 63.8151 67.9089 64.0391 68.5703C64.2682 69.2266 64.3828 69.9896 64.3828 70.8594C64.3828 72.0104 64.1901 72.9792 63.8047 73.7656C63.4193 74.5469 62.875 75.1771 62.1719 75.6562C61.474 76.1354 60.6328 76.4792 59.6484 76.6875C58.6641 76.8958 57.5755 77 56.3828 77H50.3828V73.6094L51.3828 73.4141V68.2969L50.3828 68.1016V65H59.4844ZM57.1484 73.4141C57.7057 73.4141 58.1354 73.3542 58.4375 73.2344C58.7396 73.1094 58.9583 72.9349 59.0938 72.7109C59.2344 72.487 59.3151 72.2188 59.3359 71.9062C59.362 71.5938 59.375 71.2448 59.375 70.8594C59.375 70.474 59.362 70.125 59.3359 69.8125C59.3151 69.4948 59.2344 69.224 59.0938 69C58.9583 68.776 58.7396 68.6042 58.4375 68.4844C58.1354 68.3594 57.7057 68.2969 57.1484 68.2969H56.3828V73.4141H57.1484Z" fill="#D62300"/>
<path d="M57 37.2V33.192C56.9935 32.3474 56.641 31.5391 56.0189 30.9419C55.3968 30.3446 54.5548 30.0063 53.675 30H37V37.992L49.5 44.4H37V54H53.675C54.5548 53.9937 55.3968 53.6554 56.0189 53.0581C56.641 52.4609 56.9935 51.6526 57 50.808V46.8H62V37.2H57Z" fill="#D62300"/>
<path d="M35.75 44.4V49.2L17 39.6H30.75V34.8L37 37.992V30H15.35C14.4658 30 13.6175 30.3355 12.99 30.9334C12.3625 31.5314 12.0066 32.3432 12 33.192V50.784C12 51.6328 12.3495 52.4472 12.9723 53.0496C13.5952 53.652 14.4409 53.9937 15.325 54H37V44.4H35.75Z" fill="#FF8732"/>
<path d="M6.90625 12.1328L9.03125 11.625V14.3906L6.90625 13.8828V15.4141L7.90625 15.6406V19H0.90625V15.6094L1.90625 15.4141V10.6016L0.90625 10.4062V7H10.5703V11H9.25781C9.13281 10.8854 8.98958 10.7682 8.82812 10.6484C8.67188 10.5286 8.49479 10.4219 8.29688 10.3281C8.10417 10.2292 7.89062 10.151 7.65625 10.0938C7.42708 10.0312 7.17708 10 6.90625 10V12.1328ZM19.0703 19L18.6484 16.9844H15.3828L14.9688 19H10.5234V15.0625L11.4844 14.8672L13.7891 7H20.2422L22.5547 14.8672L23.5156 15.0625V19H19.0703ZM16.0547 14.3047H17.9766L17.0156 9.78125L16.0547 14.3047ZM32.9609 19L32.5391 16.9844H29.2734L28.8594 19H24.4141V15.0625L25.375 14.8672L27.6797 7H34.1328L36.4453 14.8672L37.4062 15.0625V19H32.9609ZM29.9453 14.3047H31.8672L30.9062 9.78125L29.9453 14.3047ZM46.8516 19L46.4297 16.9844H43.1641L42.75 19H38.3047V15.0625L39.2656 14.8672L41.5703 7H48.0234L50.3359 14.8672L51.2969 15.0625V19H46.8516ZM43.8359 14.3047H45.7578L44.7969 9.78125L43.8359 14.3047ZM62.8281 15.2344C62.8229 15.75 62.7474 16.2083 62.6016 16.6094C62.4609 17.0052 62.263 17.349 62.0078 17.6406C61.7526 17.9271 61.4531 18.1719 61.1094 18.375C60.7656 18.5729 60.3958 18.7344 60 18.8594C59.6042 18.9792 59.1875 19.0547 58.75 19.0859C58.3177 19.1224 57.8828 19.1406 57.4453 19.1406C56.6536 19.1406 55.9583 19.1094 55.3594 19.0469C55.0156 19.0052 54.5026 18.8906 53.8203 18.7031C53.263 18.5521 52.8255 18.3932 52.5078 18.2266V15.1406H54.8594C55.1302 15.5156 55.4349 15.7917 55.7734 15.9688C56.1172 16.1458 56.4688 16.2344 56.8281 16.2344C56.9219 16.2344 57.026 16.2266 57.1406 16.2109C57.2552 16.1953 57.362 16.151 57.4609 16.0781C57.5651 16.0052 57.651 15.8906 57.7188 15.7344C57.7917 15.5781 57.8281 15.3594 57.8281 15.0781C57.3802 15.0365 56.9349 14.9766 56.4922 14.8984C56.0547 14.8203 55.6354 14.7135 55.2344 14.5781C54.8333 14.4427 54.4583 14.2734 54.1094 14.0703C53.7656 13.862 53.4661 13.612 53.2109 13.3203C52.9609 13.0286 52.763 12.6875 52.6172 12.2969C52.4766 11.901 52.4062 11.4453 52.4062 10.9297C52.4062 10.3776 52.4792 9.89323 52.625 9.47656C52.7708 9.05469 52.9688 8.69271 53.2188 8.39062C53.474 8.08333 53.7708 7.83073 54.1094 7.63281C54.4531 7.42969 54.8203 7.26823 55.2109 7.14844C55.6068 7.02865 56.0156 6.95312 56.4375 6.92188C56.8646 6.89062 57.2891 6.875 57.7109 6.875C58.3255 6.875 58.8776 6.89844 59.3672 6.94531C59.862 6.98698 60.3073 7.05469 60.7031 7.14844C61.099 7.24219 61.4479 7.34896 61.75 7.46875C62.0573 7.58333 62.3307 7.69531 62.5703 7.80469V10.8516H60.2188C59.9531 10.4766 59.6562 10.2005 59.3281 10.0234C59.0052 9.84635 58.6719 9.75781 58.3281 9.75781C58.2344 9.75781 58.1276 9.77083 58.0078 9.79688C57.888 9.81771 57.776 9.8724 57.6719 9.96094C57.5677 10.0443 57.4792 10.1693 57.4062 10.3359C57.3333 10.4974 57.2969 10.7188 57.2969 11C58.2083 11.0312 59.0104 11.1302 59.7031 11.2969C60.3958 11.4635 60.9714 11.7161 61.4297 12.0547C61.8932 12.388 62.2422 12.8177 62.4766 13.3438C62.7109 13.8646 62.8281 14.4948 62.8281 15.2344ZM74.7188 7V11H73.4062C73.3177 10.8854 73.2161 10.7682 73.1016 10.6484C72.987 10.5286 72.8594 10.4219 72.7188 10.3281C72.5781 10.2292 72.4245 10.151 72.2578 10.0938C72.0911 10.0312 71.9115 10 71.7188 10V15.4141L72.7188 15.6094V19H65.7188V15.6094L66.7188 15.4141V10C66.526 10 66.3464 10.0312 66.1797 10.0938C66.013 10.151 65.8594 10.2292 65.7188 10.3281C65.5781 10.4219 65.4505 10.5286 65.3359 10.6484C65.2214 10.7682 65.1198 10.8854 65.0312 11H63.7188V7H74.7188Z" fill="#FF8732"/>
</svg>
