<svg width="75" height="75" viewBox="0 0 75 75" fill="none" xmlns="http://www.w3.org/2000/svg">
<circle cx="37.5" cy="37.5" r="37.5" fill="#F5EBDC"/>
<path d="M35.2828 36.9999L51.0391 21.2437C47.0066 17.2112 41.436 14.7172 35.2828 14.7172C22.9764 14.7173 13 24.6936 13 36.9999C13 49.3426 22.94 59.2827 35.2828 59.2827C47.2869 59.2827 57.074 49.7905 57.5476 37.9024C57.5672 37.4107 57.1765 36.9999 56.6844 36.9999H35.2828Z" fill="#FFAD41"/>
<path opacity="0.15" d="M46.7653 21.1375C47.2071 21.1375 47.5652 20.7794 47.5652 20.3376C47.5652 19.8958 47.2071 19.5377 46.7653 19.5377C46.3235 19.5377 45.9654 19.8958 45.9654 20.3376C45.9654 20.7794 46.3235 21.1375 46.7653 21.1375Z" fill="black"/>
<path opacity="0.15" d="M31.8095 17.6113C32.2513 17.6113 32.6094 17.2532 32.6094 16.8114C32.6094 16.3697 32.2513 16.0115 31.8095 16.0115C31.3677 16.0115 31.0096 16.3697 31.0096 16.8114C31.0096 17.2532 31.3677 17.6113 31.8095 17.6113Z" fill="black"/>
<path opacity="0.15" d="M20.1867 26.3585C20.6285 26.3585 20.9866 26.0004 20.9866 25.5586C20.9866 25.1168 20.6285 24.7587 20.1867 24.7587C19.7449 24.7587 19.3868 25.1168 19.3868 25.5586C19.3868 26.0004 19.7449 26.3585 20.1867 26.3585Z" fill="black"/>
<path opacity="0.15" d="M17.0201 46.8277C17.4619 46.8277 17.82 46.4695 17.82 46.0277C17.82 45.586 17.4619 45.2278 17.0201 45.2278C16.5783 45.2278 16.2202 45.586 16.2202 46.0277C16.2202 46.4695 16.5783 46.8277 17.0201 46.8277Z" fill="black"/>
<path opacity="0.15" d="M31.0096 55.8489C31.4513 55.8489 31.8095 55.4908 31.8095 55.049C31.8095 54.6072 31.4513 54.2491 31.0096 54.2491C30.5678 54.2491 30.2097 54.6072 30.2097 55.049C30.2097 55.4908 30.5678 55.8489 31.0096 55.8489Z" fill="black"/>
<path opacity="0.15" d="M45.0065 55.529C45.4483 55.529 45.8064 55.1709 45.8064 54.7291C45.8064 54.2873 45.4483 53.9292 45.0065 53.9292C44.5648 53.9292 44.2066 54.2873 44.2066 54.7291C44.2066 55.1709 44.5648 55.529 45.0065 55.529Z" fill="black"/>
<path opacity="0.15" d="M54.0257 45.4442C54.4674 45.4442 54.8256 45.0861 54.8256 44.6443C54.8256 44.2026 54.4674 43.8444 54.0257 43.8444C53.5839 43.8444 53.2258 44.2026 53.2258 44.6443C53.2258 45.0861 53.5839 45.4442 54.0257 45.4442Z" fill="black"/>
<path d="M17.2334 36.9999C17.2334 46.9683 25.3144 55.0492 35.2827 55.0492C45.2511 55.0492 53.332 46.9683 53.332 36.9999H35.2828L48.0456 24.2372C44.7794 20.971 40.267 18.9507 35.2828 18.9507C25.3145 18.9507 17.2334 27.0315 17.2334 36.9999Z" fill="#FFE98F"/>
<path opacity="0.1" d="M35.2828 18.9507C25.3145 18.9507 17.2334 27.0316 17.2334 37C17.2334 37.2428 17.2396 37.4841 17.2491 37.7246C17.6296 28.0924 25.5572 20.3999 35.2827 20.3999C39.8981 20.3999 44.1082 22.1331 47.2996 24.9832L48.0455 24.2373C44.7793 20.9709 40.2669 18.9507 35.2828 18.9507Z" fill="black"/>
<path d="M43.3333 36.9999C43.3333 38.6007 44.6309 39.8982 46.2316 39.8982C47.8324 39.8982 49.13 38.6006 49.13 36.9999H43.3333Z" fill="#DE2A4E"/>
<path d="M45.9354 26.3475C44.8035 25.2156 42.9683 25.2156 41.8364 26.3475C40.7046 27.4793 40.7046 29.3146 41.8364 30.4464L45.9354 26.3475Z" fill="#DE2A4E"/>
<path d="M37.3878 27.6566C38.9883 27.6566 40.2857 26.3592 40.2857 24.7587C40.2857 23.1582 38.9883 21.8607 37.3878 21.8607C35.7873 21.8607 34.4898 23.1582 34.4898 24.7587C34.4898 26.3592 35.7873 27.6566 37.3878 27.6566Z" fill="#DE2A4E"/>
<path d="M25.7704 31.2308C27.3709 31.2308 28.6683 29.9333 28.6683 28.3328C28.6683 26.7323 27.3709 25.4349 25.7704 25.4349C24.1699 25.4349 22.8724 26.7323 22.8724 28.3328C22.8724 29.9333 24.1699 31.2308 25.7704 31.2308Z" fill="#DE2A4E"/>
<path d="M23.0847 38.8367C24.6851 38.8367 25.9826 37.5393 25.9826 35.9388C25.9826 34.3383 24.6851 33.0408 23.0847 33.0408C21.4842 33.0408 20.1867 34.3383 20.1867 35.9388C20.1867 37.5393 21.4842 38.8367 23.0847 38.8367Z" fill="#DE2A4E"/>
<path d="M32.9956 34.8113C34.5961 34.8113 35.8936 33.5139 35.8936 31.9134C35.8936 30.3129 34.5961 29.0154 32.9956 29.0154C31.3951 29.0154 30.0977 30.3129 30.0977 31.9134C30.0977 33.5139 31.3951 34.8113 32.9956 34.8113Z" fill="#DE2A4E"/>
<path d="M25.9837 47.7588C27.5842 47.7588 28.8816 46.4613 28.8816 44.8608C28.8816 43.2603 27.5842 41.9629 25.9837 41.9629C24.3832 41.9629 23.0857 43.2603 23.0857 44.8608C23.0857 46.4613 24.3832 47.7588 25.9837 47.7588Z" fill="#DE2A4E"/>
<path d="M34.4898 44.8598C36.0903 44.8598 37.3878 43.5623 37.3878 41.9618C37.3878 40.3613 36.0903 39.0639 34.4898 39.0639C32.8893 39.0639 31.5919 40.3613 31.5919 41.9618C31.5919 43.5623 32.8893 44.8598 34.4898 44.8598Z" fill="#DE2A4E"/>
<path d="M35.8434 52.7206C37.4438 52.7206 38.7413 51.4232 38.7413 49.8227C38.7413 48.2222 37.4438 46.9247 35.8434 46.9247C34.2429 46.9247 32.9454 48.2222 32.9454 49.8227C32.9454 51.4232 34.2429 52.7206 35.8434 52.7206Z" fill="#DE2A4E"/>
<path d="M45.0065 47.7588C46.607 47.7588 47.9045 46.4613 47.9045 44.8608C47.9045 43.2603 46.607 41.9629 45.0065 41.9629C43.406 41.9629 42.1086 43.2603 42.1086 44.8608C42.1086 46.4613 43.406 47.7588 45.0065 47.7588Z" fill="#DE2A4E"/>
<path opacity="0.15" d="M44.4626 45.1211C44.9044 45.1211 45.2625 44.763 45.2625 44.3212C45.2625 43.8794 44.9044 43.5213 44.4626 43.5213C44.0208 43.5213 43.6627 43.8794 43.6627 44.3212C43.6627 44.763 44.0208 45.1211 44.4626 45.1211Z" fill="black"/>
<path opacity="0.15" d="M34.669 43.2375C35.1108 43.2375 35.4689 42.8794 35.4689 42.4376C35.4689 41.9958 35.1108 41.6377 34.669 41.6377C34.2273 41.6377 33.8691 41.9958 33.8691 42.4376C33.8691 42.8794 34.2273 43.2375 34.669 43.2375Z" fill="black"/>
<path opacity="0.15" d="M45.8066 38.8526C46.2483 38.8526 46.6065 38.4945 46.6065 38.0527C46.6065 37.611 46.2483 37.2528 45.8066 37.2528C45.3648 37.2528 45.0067 37.611 45.0067 38.0527C45.0067 38.4945 45.3648 38.8526 45.8066 38.8526Z" fill="black"/>
<path opacity="0.15" d="M37.246 26.3585C37.6878 26.3585 38.0459 26.0004 38.0459 25.5586C38.0459 25.1168 37.6878 24.7587 37.246 24.7587C36.8042 24.7587 36.4461 25.1168 36.4461 25.5586C36.4461 26.0004 36.8042 26.3585 37.246 26.3585Z" fill="black"/>
<path opacity="0.15" d="M23.8857 36.4123C24.3275 36.4123 24.6857 36.0542 24.6857 35.6124C24.6857 35.1706 24.3275 34.8125 23.8857 34.8125C23.444 34.8125 23.0858 35.1706 23.0858 35.6124C23.0858 36.0542 23.444 36.4123 23.8857 36.4123Z" fill="black"/>
<path opacity="0.15" d="M25.4974 45.4442C25.9391 45.4442 26.2973 45.0861 26.2973 44.6443C26.2973 44.2026 25.9391 43.8444 25.4974 43.8444C25.0556 43.8444 24.6974 44.2026 24.6974 44.6443C24.6974 45.0861 25.0556 45.4442 25.4974 45.4442Z" fill="black"/>
<path opacity="0.1" d="M50.0847 20.3457L37.5706 32.8596H39.4231L51.0391 21.2437C50.7302 20.9348 50.4111 20.636 50.0847 20.3457Z" fill="black"/>
<path d="M46.401 35.2387C45.7723 35.2387 45.2625 34.7289 45.2625 34.1002V31.5483H47.5395V34.1002C47.5395 34.7289 47.0297 35.2387 46.401 35.2387Z" fill="#FFE98F"/>
<path d="M51.0974 34.3854C50.4686 34.3854 49.9589 33.8756 49.9589 33.2469V31.5483H52.2358V33.2469C52.2358 33.8757 51.7262 34.3854 51.0974 34.3854Z" fill="#FFE98F"/>
<path d="M57.1175 16.4446C56.7832 16.0822 56.2162 16.0665 55.8677 16.415L53.4973 18.7855L40.7344 31.5483H62.1358C62.6271 31.5483 63.0188 31.1391 62.9992 30.6482C62.7818 25.1753 60.5904 20.21 57.1175 16.4446Z" fill="#FFAD41"/>
<path opacity="0.15" d="M58.3518 21.6953C58.7936 21.6953 59.1517 21.3372 59.1517 20.8954C59.1517 20.4536 58.7936 20.0955 58.3518 20.0955C57.9101 20.0955 57.5519 20.4536 57.5519 20.8954C57.5519 21.3372 57.9101 21.6953 58.3518 21.6953Z" fill="black"/>
<path d="M58.7837 31.5483C58.7837 26.5643 56.7635 22.0519 53.4972 18.7856L40.7344 31.5483H58.7837Z" fill="#FFE98F"/>
<path d="M54.5817 31.5484C54.5817 29.9476 53.2841 28.65 51.6834 28.65C50.0826 28.65 48.7851 29.9477 48.7851 31.5484H54.5817Z" fill="#DE2A4E"/>
<path d="M47.288 24.9947C48.4198 26.1266 50.2551 26.1266 51.3869 24.9947C52.5188 23.8629 52.5188 22.0276 51.3869 20.8958L47.288 24.9947Z" fill="#DE2A4E"/>
<path opacity="0.1" d="M47.5395 31.5486H45.2625V32.5839H47.5395V31.5486Z" fill="black"/>
<path opacity="0.1" d="M52.2358 31.5486H49.9588V32.5839H52.2358V31.5486Z" fill="black"/>
</svg>
